<svg width="41" height="41" viewBox="0 0 41 41" fill="none" xmlns="http://www.w3.org/2000/svg">
<path d="M23.0794 4.07939H24.3348H25.5901H36.9528V15.442V16.6974V17.9528V20.6888C36.9528 21.0429 36.9528 21.3648 36.9206 21.7189C36.8884 22.1373 36.8562 22.5558 36.7919 22.9742C36.7275 23.3927 36.6631 23.8111 36.5665 24.2296C35.8906 27.3841 34.2811 30.2167 32.0923 32.4378C29.0987 35.4313 24.9464 37.2983 20.3755 37.2983C11.2339 37.2983 3.79828 29.8626 3.79828 20.721C3.79828 16.1502 5.66524 11.9978 8.6588 9.00428C10.8798 6.78325 13.7124 5.206 16.867 4.53003V1.40771C16.867 1.1502 16.867 0.924881 16.867 0.66737C12.779 1.37552 8.98069 3.33904 5.98713 6.33261C2.12446 10.0987 0 15.2167 0 20.6566C0 26.0966 2.12446 31.1824 5.95494 35.0451C9.78541 38.8755 14.9034 41 20.3433 41C25.7833 41 30.8691 38.8755 34.7318 35.0451C38.3369 31.4399 40.4292 26.7081 40.6545 21.6545C40.6545 21.4936 40.6545 21.3326 40.6867 21.1717C40.6867 21.0751 40.6867 21.0107 40.6867 20.9142C40.6867 20.8176 40.6867 20.7532 40.6867 20.6566V17.8884V0.313293H25.5901H24.3348H23.0794C23.0472 0.667371 23.0472 0.989259 23.0472 1.34334L23.0794 4.07939Z" fill="#F7654A"/>
</svg>
